# xmcd CD database file
#
# Track frame offsets:
#	150
#	20360
#	38760
#
# Disc length: 785 seconds
#
# Revision: 0
# Processed by: cddbd v1.5PL3 Copyright (c) Steve Scherf et al.
# Submitted via: CDex 1.50
#
DISCID=18030f03
DTITLE=加藤紀子 - ふゆがきた
DYEAR=1998
DGENRE=JPop
TTITLE0=ふゆがきた
TTITLE1=春の匂い
TTITLE2=ふゆがきた (ｶﾗｵｹ)
EXTD=YEAR: 1998/01/15
EXTT0=
EXTT1=
EXTT2=
PLAYORDER=
